<svg width="73" height="73" viewBox="0 0 73 73" fill="none" xmlns="http://www.w3.org/2000/svg">
<path fill-rule="evenodd" clip-rule="evenodd" d="M34.3247 72.1942L31.3377 71.9149L33.8635 44.9007C33.464 44.7903 33.0773 44.652 32.7053 44.488L17.5869 65.6073L15.1475 63.861L30.2173 42.8096C29.8941 42.4956 29.5963 42.1566 29.3268 41.7961L5.37845 53.4178L4.06868 50.7188L27.9814 39.1143C27.7673 38.3892 27.648 37.6266 27.6366 36.8422L0.70411 33.9753L1.02167 30.9922L28.1198 33.8767C28.2826 33.4147 28.4837 32.9723 28.7191 32.5527L6.20758 16.8836L7.92143 14.4214L30.6336 30.2302C30.9808 29.9353 31.3515 29.6683 31.742 29.432L19.2741 4.19443L21.9638 2.86567L34.5558 28.3546C34.8401 28.301 35.1289 28.2616 35.4214 28.2373L38.0402 0.227588L41.0272 0.50686L38.4084 28.5165C38.9672 28.6708 39.5012 28.8799 40.0046 29.1374L57.0575 5.31574L59.4969 7.06199L42.393 30.955C42.636 31.2194 42.8622 31.499 43.0702 31.792L68.8442 19.2843L70.154 21.9833L44.3484 34.5063C44.4465 34.8718 44.5206 35.2462 44.5691 35.6277L72.6172 38.6134L72.2996 41.5965L44.4176 38.6285C44.3394 38.968 44.2411 39.299 44.1242 39.6203L67.0156 55.5538L65.3018 58.0161L42.6081 42.2202C42.3603 42.5107 42.0934 42.784 41.8098 43.0381L53.854 67.4181L51.1643 68.7468L39.2458 44.6214C38.4906 44.9189 37.6855 45.1106 36.8504 45.18L34.3247 72.1942Z" fill="#83A17D"/>
</svg>
